<svg width="21" height="19" viewBox="0 0 21 19" fill="none" xmlns="http://www.w3.org/2000/svg">
<path fill-rule="evenodd" clip-rule="evenodd" d="M16.96 0.977173C18.063 0.977173 18.96 1.83146 18.96 2.88193V4.7867C20.063 4.7867 20.96 5.64098 20.96 6.69146V16.2153C20.96 17.2657 20.063 18.12 18.96 18.12H3.95996C2.75396 18.12 0.959961 17.3591 0.959961 15.2629V3.83432C0.959961 2.25908 2.30596 0.977173 3.95996 0.977173H16.96ZM16.96 2.88193H3.95996C3.40796 2.88193 2.95996 3.30955 2.95996 3.83432C2.95996 4.35908 3.40796 4.7867 3.95996 4.7867H16.96V2.88193ZM3.97196 16.2153H18.96V6.69146H3.95996C3.60696 6.69146 3.27396 6.62289 2.95996 6.51527V15.2629C2.95996 16.0296 3.50996 16.2038 3.97196 16.2153ZM18.1028 10.9772H15.2457V13.8343H18.1028V10.9772Z" fill="#FFAB00"/>
</svg>
